0
SECTION
2
HEADER
9
$INSUNITS
70
4
9
$ACADVER
1
AC1014
9
$HANDSEED
5
FFFF
0
ENDSEC
0
SECTION
2
TABLES
0
TABLE
2
VPORT
5
8
100
AcDbSymbolTable
0
ENDTAB
0
TABLE
2
LTYPE
5
5
100
AcDbSymbolTable
0
LTYPE
5
14
100
AcDbSymbolTableRecord
100
AcDbLinetypeTableRecord
2
BYBLOCK
70
0
0
LTYPE
5
15
100
AcDbSymbolTableRecord
100
AcDbLinetypeTableRecord
2
BYLAYER
70
0
0
LTYPE
5
16
100
AcDbSymbolTableRecord
100
AcDbLinetypeTableRecord
2
DASHED
70
0
3
Dashed __ __ __ __ __ __ __ __ __ __ __ __ __ _
72
65
73
2
40
0.75
49
0.5
74
0
49
-0.25
74
0
0
ENDTAB
0
TABLE
2
LAYER
5
2
100
AcDbSymbolTable
70
2
0
LAYER
5
50
100
AcDbSymbolTableRecord
100
AcDbLayerTableRecord
2
0
70
0
62
7
6
CONTINUOUS
0
ENDTAB
0
TABLE
2
STYLE
5
3
100
AcDbSymbolTable
70
1
0
STYLE
5
11
100
AcDbSymbolTableRecord
100
AcDbTextStyleTableRecord
2
STANDARD
70
0
0
ENDTAB
0
TABLE
2
VIEW
5
6
100
AcDbSymbolTable
70
0
0
ENDTAB
0
TABLE
2
UCS
5
7
100
AcDbSymbolTable
70
0
0
ENDTAB
0
TABLE
2
APPID
5
9
100
AcDbSymbolTable
70
2
0
APPID
5
12
100
AcDbSymbolTableRecord
100
AcDbRegAppTableRecord
2
ACAD
70
0
0
ENDTAB
0
TABLE
2
DIMSTYLE
5
A
100
AcDbSymbolTable
70
1
0
ENDTAB
0
TABLE
2
BLOCK_RECORD
5
1
100
AcDbSymbolTable
70
1
0
BLOCK_RECORD
5
1F
100
AcDbSymbolTableRecord
100
AcDbBlockTableRecord
2
*MODEL_SPACE
0
BLOCK_RECORD
5
1B
100
AcDbSymbolTableRecord
100
AcDbBlockTableRecord
2
*PAPER_SPACE
0
ENDTAB
0
ENDSEC
0
SECTION
2
BLOCKS
0
BLOCK
5
20
100
AcDbEntity
100
AcDbBlockBegin
2
*MODEL_SPACE
0
ENDBLK
5
21
100
AcDbEntity
100
AcDbBlockEnd
0
BLOCK
5
1C
100
AcDbEntity
100
AcDbBlockBegin
2
*PAPER_SPACE
0
ENDBLK
5
1D
100
AcDbEntity
100
AcDbBlockEnd
0
ENDSEC
0
SECTION
2
ENTITIES
0
LWPOLYLINE
5
100
100
AcDbEntity
8
0
100
AcDbPolyline
90
72
70
1
43
0.0
10
-263.55240048827898
20
-270.42868515798875
10
-149.55240048827909
20
-270.42868515798875
10
-149.55240048827909
20
-255.42868515798881
10
-146.55240048827912
20
-255.42868515798872
10
-146.55240048827909
20
-240.42868515798875
10
-149.55240048827909
20
-240.42868515798875
10
-149.55240048827909
20
-225.42868515798881
10
-146.55240048827912
20
-225.42868515798875
10
-146.55240048827909
20
-210.42868515798875
10
-149.55240048827909
20
-210.42868515798875
10
-149.55240048827909
20
-195.42868515798881
10
-146.55240048827912
20
-195.42868515798881
10
-146.55240048827912
20
-180.42868515798884
10
-149.55240048827909
20
-180.42868515798884
10
-149.55240048827909
20
-165.42868515798884
10
-146.55240048827912
20
-165.42868515798884
10
-146.55240048827909
20
-150.42868515798884
10
-149.55240048827909
20
-150.42868515798884
10
-149.55240048827909
20
-135.42868515798884
10
-146.55240048827912
20
-135.42868515798889
10
-146.55240048827912
20
-120.42868515798889
10
-149.55240048827909
20
-120.42868515798888
10
-149.55240048827909
20
-105.42868515798888
10
-146.55240048827912
20
-105.42868515798888
10
-146.55240048827912
20
-90.428685157988895
10
-149.55240048827912
20
-90.428685157988895
10
-149.55240048827909
20
-75.428685157988923
10
-146.55240048827912
20
-75.428685157988923
10
-146.55240048827915
20
-60.428685157988937
10
-149.55240048827912
20
-60.42868515798893
10
-149.55240048827909
20
-45.428685157988951
10
-146.55240048827915
20
-45.428685157988951
10
-146.55240048827915
20
-30.428685157988934
10
-149.55240048827912
20
-30.428685157988934
10
-149.55240048827912
20
-24.08310841702566
10
-161.55240048827909
20
-24.083108417025656
10
-161.55240048827915
20
-20.320539162689016
10
-251.55240048827906
20
-20.32053916268903
10
-251.55240048827903
20
-24.08310841702567
10
-263.55240048827903
20
-24.083108417025684
10
-263.55240048827903
20
-30.428685157988955
10
-266.55240048827903
20
-30.428685157988955
10
-266.55240048827898
20
-45.42868515798898
10
-263.55240048827898
20
-45.42868515798898
10
-263.55240048827903
20
-60.428685157988951
10
-266.55240048827903
20
-60.428685157988951
10
-266.55240048827898
20
-75.428685157988937
10
-263.55240048827898
20
-75.428685157988937
10
-263.55240048827903
20
-90.428685157988923
10
-266.55240048827903
20
-90.428685157988923
10
-266.55240048827898
20
-105.42868515798889
10
-263.55240048827898
20
-105.42868515798892
10
-263.55240048827903
20
-120.42868515798889
10
-266.55240048827903
20
-120.42868515798889
10
-266.55240048827898
20
-135.42868515798889
10
-263.55240048827898
20
-135.42868515798889
10
-263.55240048827903
20
-150.42868515798889
10
-266.55240048827903
20
-150.42868515798887
10
-266.55240048827898
20
-165.42868515798887
10
-263.55240048827898
20
-165.42868515798887
10
-263.55240048827898
20
-180.42868515798887
10
-266.55240048827898
20
-180.42868515798887
10
-266.55240048827898
20
-195.42868515798884
10
-263.55240048827898
20
-195.42868515798881
10
-263.55240048827903
20
-210.42868515798875
10
-266.55240048827903
20
-210.42868515798881
10
-266.55240048827898
20
-225.42868515798881
10
-263.55240048827898
20
-225.42868515798881
10
-263.55240048827898
20
-240.42868515798875
10
-266.55240048827898
20
-240.42868515798875
10
-266.55240048827898
20
-255.42868515798872
10
-263.55240048827898
20
-255.42868515798875
0
CIRCLE
5
101
100
AcDbEntity
8
0
100
AcDbCircle
10
-58.768026121293772
20
-77.22360440110117
30
2.1433855912661552e-15
40
15.000000000000014
210
-1.7698716908455174e-31
220
2.7755575615628877e-17
230
1
0
CIRCLE
5
102
100
AcDbEntity
8
0
100
AcDbCircle
10
-38.768026121293772
20
-111.86462055247871
30
3.1048669344579477e-15
40
15.000000000000009
210
-1.7698716908455174e-31
220
2.7755575615628877e-17
230
1
0
CIRCLE
5
103
100
AcDbEntity
8
0
100
AcDbCircle
10
-78.768026121293829
20
-181.14665285523375
30
5.0278296208415012e-15
40
15.000000000000014
210
-1.7698716908455174e-31
220
2.7755575615628877e-17
230
1
0
CIRCLE
5
104
100
AcDbEntity
8
0
100
AcDbCircle
10
-118.7680261212939
20
-250.4286851579887
30
6.9507923072250546e-15
40
15.000000000000009
210
-1.7698716908455174e-31
220
2.7755575615628877e-17
230
1
0
CIRCLE
5
105
100
AcDbEntity
8
0
100
AcDbCircle
10
-78.768026121293872
20
-250.42868515798872
30
6.9507923072250625e-15
40
15.000000000000014
210
-1.7698716908455174e-31
220
2.7755575615628877e-17
230
1
0
CIRCLE
5
106
100
AcDbEntity
8
0
100
AcDbCircle
10
-38.768026121293808
20
-181.14665285523375
30
5.0278296208415169e-15
40
15.000000000000009
210
-1.7698716908455174e-31
220
2.7755575615628877e-17
230
1
0
CIRCLE
5
107
100
AcDbEntity
8
0
100
AcDbCircle
10
-58.768026121293815
20
-146.50563670385625
30
4.0663482776497244e-15
40
15.000000000000014
210
-1.7698716908455174e-31
220
2.7755575615628877e-17
230
1
0
CIRCLE
5
108
100
AcDbEntity
8
0
100
AcDbCircle
10
-98.768026121293801
20
-77.223604401101184
30
2.1433855912661473e-15
40
15.000000000000016
210
-1.7698716908455174e-31
220
2.7755575615628877e-17
230
1
0
CIRCLE
5
109
100
AcDbEntity
8
0
100
AcDbCircle
10
-78.768026121293801
20
-111.86462055247867
30
3.1048669344579477e-15
40
15.000000000000014
210
-1.7698716908455174e-31
220
2.7755575615628877e-17
230
1
0
CIRCLE
5
110
100
AcDbEntity
8
0
100
AcDbCircle
10
-118.76802612129384
20
-181.14665285523373
30
5.0278296208415012e-15
40
15.000000000000009
210
-1.7698716908455174e-31
220
2.7755575615628877e-17
230
1
0
CIRCLE
5
111
100
AcDbEntity
8
0
100
AcDbCircle
10
-98.768026121293872
20
-215.78766900661122
30
5.9893109640332779e-15
40
15.000000000000009
210
-1.7698716908455174e-31
220
2.7755575615628877e-17
230
1
0
CIRCLE
5
112
100
AcDbEntity
8
0
100
AcDbCircle
10
-38.76802612129385
20
-250.42868515798875
30
6.9507923072250546e-15
40
15.000000000000009
210
-1.7698716908455174e-31
220
2.7755575615628877e-17
230
1
0
CIRCLE
5
113
100
AcDbEntity
8
0
100
AcDbCircle
10
-58.768026121293843
20
-215.78766900661125
30
5.9893109640332779e-15
40
15.000000000000014
210
-1.7698716908455174e-31
220
2.7755575615628877e-17
230
1
0
CIRCLE
5
114
100
AcDbEntity
8
0
100
AcDbCircle
10
-98.768026121293815
20
-146.5056367038562
30
4.0663482776497244e-15
40
15.000000000000009
210
-1.7698716908455174e-31
220
2.7755575615628877e-17
230
1
0
CIRCLE
5
115
100
AcDbEntity
8
0
100
AcDbCircle
10
-118.76802612129381
20
-111.86462055247864
30
3.1048669344579319e-15
40
15.000000000000009
210
-1.7698716908455174e-31
220
2.7755575615628877e-17
230
1
0
LWPOLYLINE
5
116
100
AcDbEntity
8
0
100
AcDbPolyline
90
72
70
1
43
0.0
10
-33.768026121293737
20
-24.083108417025628
10
-33.768026121293737
20
-20.320539162688988
10
-123.76802612129379
20
-20.320539162688917
10
-123.76802612129379
20
-24.083108417025553
10
-135.76802612129379
20
-24.083108417025553
10
-135.76802612129381
20
-30.428685157988834
10
-138.76802612129381
20
-30.428685157988834
10
-138.76802612129381
20
-45.428685157988859
10
-135.76802612129381
20
-45.428685157988859
10
-135.76802612129381
20
-60.428685157988852
10
-138.76802612129384
20
-60.428685157988852
10
-138.76802612129381
20
-75.428685157988838
10
-135.76802612129381
20
-75.428685157988838
10
-135.76802612129381
20
-90.428685157988838
10
-138.76802612129384
20
-90.428685157988838
10
-138.76802612129384
20
-105.42868515798881
10
-135.76802612129384
20
-105.42868515798881
10
-135.76802612129384
20
-120.42868515798881
10
-138.76802612129384
20
-120.42868515798884
10
-138.76802612129384
20
-135.42868515798881
10
-135.76802612129384
20
-135.42868515798881
10
-135.76802612129387
20
-150.42868515798878
10
-138.76802612129387
20
-150.42868515798878
10
-138.76802612129387
20
-165.42868515798881
10
-135.76802612129387
20
-165.42868515798875
10
-135.76802612129387
20
-180.42868515798875
10
-138.76802612129387
20
-180.42868515798881
10
-138.76802612129387
20
-195.42868515798875
10
-135.76802612129387
20
-195.42868515798875
10
-135.76802612129387
20
-210.42868515798875
10
-138.7680261212939
20
-210.42868515798872
10
-138.76802612129387
20
-225.42868515798875
10
-135.7680261212939
20
-225.42868515798872
10
-135.76802612129393
20
-240.42868515798872
10
-138.76802612129393
20
-240.42868515798872
10
-138.7680261212939
20
-255.42868515798872
10
-135.76802612129393
20
-255.42868515798872
10
-135.76802612129393
20
-270.42868515798875
10
-21.768026121293857
20
-270.42868515798881
10
-21.76802612129385
20
-255.42868515798881
10
-18.768026121293847
20
-255.42868515798881
10
-18.768026121293843
20
-240.42868515798881
10
-21.768026121293829
20
-240.42868515798884
10
-21.768026121293822
20
-225.42868515798884
10
-18.768026121293829
20
-225.42868515798881
10
-18.768026121293826
20
-210.42868515798875
10
-21.768026121293822
20
-210.42868515798881
10
-21.768026121293815
20
-195.42868515798881
10
-18.768026121293811
20
-195.42868515798887
10
-18.768026121293808
20
-180.42868515798889
10
-21.768026121293804
20
-180.42868515798887
10
-21.768026121293794
20
-165.42868515798887
10
-18.768026121293804
20
-165.42868515798887
10
-18.768026121293801
20
-150.42868515798887
10
-21.768026121293794
20
-150.42868515798887
10
-21.768026121293786
20
-135.42868515798887
10
-18.768026121293786
20
-135.42868515798889
10
-18.768026121293783
20
-120.42868515798889
10
-21.768026121293779
20
-120.42868515798889
10
-21.768026121293769
20
-105.42868515798889
10
-18.768026121293769
20
-105.42868515798888
10
-18.768026121293765
20
-90.428685157988895
10
-21.768026121293758
20
-90.428685157988895
10
-21.768026121293751
20
-75.428685157988923
10
-18.768026121293751
20
-75.428685157988923
10
-18.768026121293747
20
-60.428685157988937
10
-21.768026121293751
20
-60.428685157988937
10
-21.768026121293744
20
-45.428685157988944
10
-18.76802612129374
20
-45.428685157988944
10
-18.768026121293737
20
-30.428685157988919
10
-21.768026121293733
20
-30.428685157988916
10
-21.76802612129373
20
-24.083108417025638
0
CIRCLE
5
117
100
AcDbEntity
8
0
100
AcDbCircle
10
-356.32527632878015
20
-67.361429798685663
30
1.8696552583542261e-15
40
14.999999999999996
210
-2.0557089175842135e-31
220
2.7755575615628914e-17
230
1
0
CIRCLE
5
118
100
AcDbEntity
8
0
100
AcDbCircle
10
-356.32527632878009
20
-136.64346210144066
30
3.7926179447377953e-15
40
14.999999999999996
210
-2.0557089175842135e-31
220
2.7755575615628914e-17
230
1
0
CIRCLE
5
119
100
AcDbEntity
8
0
100
AcDbCircle
10
-316.32527632878015
20
-205.92549440419558
30
5.7155806311213646e-15
40
14.999999999999996
210
-2.0557089175842135e-31
220
2.7755575615628914e-17
230
1
0
CIRCLE
5
120
100
AcDbEntity
8
0
100
AcDbCircle
10
-296.32527632878015
20
-240.56651055557322
30
6.6770619743131413e-15
40
14.999999999999996
210
-2.0557089175842135e-31
220
2.7755575615628914e-17
230
1
0
CIRCLE
5
121
100
AcDbEntity
8
0
100
AcDbCircle
10
-356.32527632878015
20
-205.92549440419558
30
5.7155806311213409e-15
40
14.999999999999996
210
-2.0557089175842135e-31
220
2.7755575615628914e-17
230
1
0
CIRCLE
5
122
100
AcDbEntity
8
0
100
AcDbCircle
10
-376.32527632878015
20
-171.28447825281813
30
4.7540992879295484e-15
40
14.999999999999996
210
-2.0557089175842135e-31
220
2.7755575615628914e-17
230
1
0
CIRCLE
5
123
100
AcDbEntity
8
0
100
AcDbCircle
10
-376.32527632878015
20
-102.00244595006309
30
2.831136601545987e-15
40
14.999999999999996
210
-2.0557089175842135e-31
220
2.7755575615628914e-17
230
1
0
CIRCLE
5
124
100
AcDbEntity
8
0
100
AcDbCircle
10
-316.32527632878021
20
-67.361429798685606
30
1.869655258354234e-15
40
14.999999999999996
210
-2.0557089175842135e-31
220
2.7755575615628914e-17
230
1
0
CIRCLE
5
125
100
AcDbEntity
8
0
100
AcDbCircle
10
-296.32527632878015
20
-102.00244595006308
30
2.8311366015460265e-15
40
14.999999999999996
210
-2.0557089175842135e-31
220
2.7755575615628914e-17
230
1
0
CIRCLE
5
126
100
AcDbEntity
8
0
100
AcDbCircle
10
-296.32527632878015
20
-171.2844782528181
30
4.754099287929572e-15
40
14.999999999999996
210
-2.0557089175842135e-31
220
2.7755575615628914e-17
230
1
0
CIRCLE
5
127
100
AcDbEntity
8
0
100
AcDbCircle
10
-336.32527632878015
20
-240.56651055557322
30
6.6770619743131334e-15
40
14.999999999999996
210
-2.0557089175842135e-31
220
2.7755575615628914e-17
230
1
0
CIRCLE
5
128
100
AcDbEntity
8
0
100
AcDbCircle
10
-376.32527632878015
20
-240.56651055557322
30
6.6770619743131176e-15
40
14.999999999999996
210
-2.0557089175842135e-31
220
2.7755575615628914e-17
230
1
0
CIRCLE
5
129
100
AcDbEntity
8
0
100
AcDbCircle
10
-336.32527632878015
20
-171.2844782528181
30
4.754099287929572e-15
40
14.999999999999996
210
-2.0557089175842135e-31
220
2.7755575615628914e-17
230
1
0
CIRCLE
5
130
100
AcDbEntity
8
0
100
AcDbCircle
10
-336.32527632878015
20
-102.00244595006309
30
2.8311366015460028e-15
40
14.999999999999996
210
-2.0557089175842135e-31
220
2.7755575615628914e-17
230
1
0
CIRCLE
5
131
100
AcDbEntity
8
0
100
AcDbCircle
10
-316.32527632878021
20
-136.64346210144063
30
3.7926179447377795e-15
40
14.999999999999996
210
-2.0557089175842135e-31
220
2.7755575615628914e-17
230
1
0
LWPOLYLINE
5
132
100
AcDbEntity
8
0
100
AcDbPolyline
90
72
70
1
43
0.0
10
-393.32527632878009
20
-270.42868515798881
10
-279.32527632878015
20
-270.42868515798881
10
-279.32527632878015
20
-255.42868515798881
10
-276.32527632878015
20
-255.42868515798875
10
-276.32527632878015
20
-240.42868515798881
10
-279.32527632878015
20
-240.42868515798884
10
-279.32527632878015
20
-225.42868515798887
10
-276.32527632878015
20
-225.42868515798884
10
-276.32527632878015
20
-210.42868515798884
10
-279.32527632878015
20
-210.42868515798884
10
-279.32527632878015
20
-195.42868515798887
10
-276.32527632878015
20
-195.42868515798887
10
-276.32527632878021
20
-180.42868515798889
10
-279.32527632878021
20
-180.42868515798887
10
-279.32527632878015
20
-165.42868515798887
10
-276.32527632878021
20
-165.42868515798887
10
-276.32527632878021
20
-150.42868515798887
10
-279.32527632878021
20
-150.42868515798887
10
-279.32527632878021
20
-135.42868515798889
10
-276.32527632878021
20
-135.42868515798889
10
-276.32527632878021
20
-120.42868515798892
10
-279.32527632878021
20
-120.42868515798892
10
-279.32527632878021
20
-105.42868515798892
10
-276.32527632878021
20
-105.42868515798892
10
-276.32527632878021
20
-90.428685157988937
10
-279.32527632878021
20
-90.428685157988937
10
-279.32527632878021
20
-75.428685157988951
10
-276.32527632878021
20
-75.428685157988951
10
-276.32527632878021
20
-60.428685157988973
10
-279.32527632878026
20
-60.428685157988973
10
-279.32527632878021
20
-45.428685157988994
10
-276.32527632878021
20
-45.428685157989001
10
-276.32527632878021
20
-30.428685157988976
10
-279.32527632878026
20
-30.428685157988969
10
-279.32527632878021
20
-24.083108417025695
10
-291.32527632878021
20
-24.083108417025695
10
-291.32527632878021
20
-20.320539162689055
10
-381.32527632878021
20
-20.320539162689077
10
-381.32527632878021
20
-24.083108417025723
10
-393.32527632878021
20
-24.083108417025731
10
-393.32527632878021
20
-30.428685157989005
10
-396.32527632878015
20
-30.428685157989005
10
-396.32527632878015
20
-45.428685157989023
10
-393.32527632878021
20
-45.428685157989037
10
-393.32527632878021
20
-60.428685157989008
10
-396.32527632878015
20
-60.428685157989008
10
-396.32527632878015
20
-75.428685157988994
10
-393.32527632878021
20
-75.428685157988994
10
-393.32527632878021
20
-90.42868515798898
10
-396.32527632878015
20
-90.42868515798898
10
-396.32527632878015
20
-105.42868515798895
10
-393.32527632878021
20
-105.42868515798895
10
-393.32527632878021
20
-120.42868515798895
10
-396.32527632878009
20
-120.42868515798895
10
-396.32527632878015
20
-135.42868515798892
10
-393.32527632878021
20
-135.42868515798892
10
-393.32527632878009
20
-150.42868515798892
10
-396.32527632878009
20
-150.42868515798889
10
-396.32527632878015
20
-165.42868515798889
10
-393.32527632878021
20
-165.42868515798892
10
-393.32527632878009
20
-180.42868515798892
10
-396.32527632878009
20
-180.42868515798889
10
-396.32527632878015
20
-195.42868515798889
10
-393.32527632878009
20
-195.42868515798887
10
-393.32527632878009
20
-210.42868515798884
10
-396.32527632878009
20
-210.42868515798884
10
-396.32527632878009
20
-225.42868515798884
10
-393.32527632878009
20
-225.42868515798884
10
-393.32527632878009
20
-240.42868515798881
10
-396.32527632878009
20
-240.42868515798884
10
-396.32527632878009
20
-255.42868515798881
10
-393.32527632878009
20
-255.42868515798884
0
LWPOLYLINE
5
133
100
AcDbEntity
8
0
100
AcDbPolyline
90
37
70
1
43
0.0
10
-129.37896419135225
20
-540.74078236487901
10
-132.33338745038884
20
-541.26172689787995
10
-134.93811011539381
20
-526.4896106026971
10
-131.98368685635725
20
-525.96866606969604
10
-134.58840952136222
20
-511.19654977451313
10
-137.54283278039881
20
-511.71749430751402
10
-140.14755544540378
20
-496.94537801233128
10
-137.19313218636719
20
-496.42443347933016
10
-139.79785485137216
20
-481.65231718414731
10
-142.75227811040875
20
-482.17326171714831
10
-145.35700077541372
20
-467.40114542196534
10
-142.40257751637716
20
-466.8802008889644
10
-145.00730018138213
20
-452.10808459378143
10
-147.96172344041872
20
-452.62902912678243
10
-150.56644610542372
20
-437.85691283159952
10
-147.61202284638711
20
-437.33596829859846
10
-150.21674551139211
20
-422.56385200341555
10
-153.17116877042869
20
-423.0847965364166
10
-155.77589143543366
20
-408.31268024123369
10
-152.82146817639708
20
-407.79173570823264
10
-155.42619084140205
20
-393.01961941304972
10
-158.38061410043866
20
-393.54056394605084
10
-160.98533676544363
20
-378.76844765086787
10
-158.03091350640705
20
-378.24750311786687
10
-160.63563617141202
20
-363.47538682268396
10
-163.5900594304486
20
-363.9963313556849
10
-166.1947820954536
20
-349.22421506050199
10
-163.24035883641702
20
-348.70327052750099
10
-165.84508150142199
20
-333.93115423231802
10
-168.79950476045855
20
-334.45209876531908
10
-171.40422742546355
20
-319.67998247013617
10
-168.44980416642699
20
-319.15903793713517
10
-171.05452683143196
20
-304.38692164195226
10
-287.64248241469932
20
-304.38692164196038
10
-287.64248241468147
20
-560.58885989501221
10
-127.64248241468155
20
-560.58885989500084
10
-127.64248241468226
20
-550.58885989500072
0
LWPOLYLINE
5
134
100
AcDbEntity
8
0
100
AcDbPolyline
90
4
70
1
43
0.0
10
-142.64248241468223
20
-550.58885989500197
10
-157.64248241468223
20
-550.588859895003
10
-157.64248241468243
20
-547.588859895003
10
-142.64248241468243
20
-547.58885989500197
0
LWPOLYLINE
5
135
100
AcDbEntity
8
0
100
AcDbPolyline
90
4
70
1
43
0.0
10
-172.64248241468223
20
-550.58885989500402
10
-187.64248241468223
20
-550.58885989500504
10
-187.64248241468243
20
-547.58885989500516
10
-172.64248241468243
20
-547.58885989500402
0
LWPOLYLINE
5
136
100
AcDbEntity
8
0
100
AcDbPolyline
90
4
70
1
43
0.0
10
-262.64248241468221
20
-550.58885989501039
10
-277.64248241468221
20
-550.58885989501141
10
-277.64248241468238
20
-547.58885989501141
10
-262.64248241468238
20
-547.58885989501039
0
LWPOLYLINE
5
137
100
AcDbEntity
8
0
100
AcDbPolyline
90
4
70
1
43
0.0
10
-202.64248241468223
20
-550.58885989500618
10
-217.64248241468223
20
-550.5888598950072
10
-217.64248241468241
20
-547.58885989500732
10
-202.64248241468241
20
-547.58885989500618
0
LWPOLYLINE
5
138
100
AcDbEntity
8
0
100
AcDbPolyline
90
4
70
1
43
0.0
10
-232.64248241468221
20
-550.58885989500823
10
-247.64248241468221
20
-550.58885989500925
10
-247.64248241468241
20
-547.58885989500936
10
-232.64248241468241
20
-547.58885989500823
0
LWPOLYLINE
5
139
100
AcDbEntity
8
0
100
AcDbPolyline
90
4
70
1
43
0.0
10
-186.17296419135221
20
-540.74078236488299
10
-189.1273874503888
20
-541.26172689788405
10
-191.73211011539377
20
-526.48961060270108
10
-188.77768685635721
20
-525.96866606970002
0
LWPOLYLINE
5
140
100
AcDbEntity
8
0
100
AcDbPolyline
90
4
70
1
43
0.0
10
-191.38240952136218
20
-511.19654977451711
10
-194.33683278039877
20
-511.717494307518
10
-196.94155544540376
20
-496.94537801233525
10
-193.98713218636718
20
-496.42443347933414
0
LWPOLYLINE
5
141
100
AcDbEntity
8
0
100
AcDbPolyline
90
4
70
1
43
0.0
10
-196.59185485137215
20
-481.65231718415129
10
-199.54627811040871
20
-482.17326171715229
10
-202.15100077541371
20
-467.40114542196932
10
-199.19657751637715
20
-466.88020088896837
0
LWPOLYLINE
5
142
100
AcDbEntity
8
0
100
AcDbPolyline
90
4
70
1
43
0.0
10
-201.80130018138212
20
-452.10808459378541
10
-204.75572344041868
20
-452.62902912678641
10
-207.36044610542368
20
-437.85691283160349
10
-204.40602284638712
20
-437.33596829860244
0
LWPOLYLINE
5
143
100
AcDbEntity
8
0
100
AcDbPolyline
90
4
70
1
43
0.0
10
-207.01074551139209
20
-422.56385200341958
10
-209.96516877042865
20
-423.08479653642058
10
-212.56989143543365
20
-408.31268024123767
10
-209.61546817639709
20
-407.79173570823662
0
LWPOLYLINE
5
144
100
AcDbEntity
8
0
100
AcDbPolyline
90
4
70
1
43
0.0
10
-212.22019084140203
20
-393.01961941305376
10
-215.17461410043862
20
-393.54056394605482
10
-217.77933676544362
20
-378.76844765087185
10
-214.82491350640703
20
-378.24750311787085
0
LWPOLYLINE
5
145
100
AcDbEntity
8
0
100
AcDbPolyline
90
4
70
1
43
0.0
10
-217.429636171412
20
-363.47538682268794
10
-220.38405943044859
20
-363.99633135568888
10
-222.98878209545359
20
-349.22421506050597
10
-220.034358836417
20
-348.70327052750497
0
LWPOLYLINE
5
146
100
AcDbEntity
8
0
100
AcDbPolyline
90
4
70
1
43
0.0
10
-222.63908150142197
20
-333.931154232322
10
-225.59350476045853
20
-334.45209876532306
10
-228.19822742546353
20
-319.67998247014015
10
-225.24380416642697
20
-319.15903793713915
0
LWPOLYLINE
5
147
100
AcDbEntity
8
0
100
AcDbPolyline
90
4
70
1
43
0.0
10
-242.96696419135219
20
-540.74078236488708
10
-245.92138745038878
20
-541.26172689788802
10
-248.52611011539375
20
-526.48961060270506
10
-245.57168685635719
20
-525.968666069704
0
LWPOLYLINE
5
148
100
AcDbEntity
8
0
100
AcDbPolyline
90
4
70
1
43
0.0
10
-248.17640952136216
20
-511.19654977452115
10
-251.13083278039875
20
-511.71749430752209
10
-253.73555544540369
20
-496.94537801233923
10
-250.78113218636716
20
-496.42443347933812
0
LWPOLYLINE
5
149
100
AcDbEntity
8
0
100
AcDbPolyline
90
4
70
1
43
0.0
10
-253.38585485137213
20
-481.65231718415527
10
-256.34027811040869
20
-482.17326171715627
10
-258.94500077541375
20
-467.4011454219733
10
-255.99057751637713
20
-466.88020088897235
0
LWPOLYLINE
5
150
100
AcDbEntity
8
0
100
AcDbPolyline
90
4
70
1
43
0.0
10
-258.59530018138207
20
-452.10808459378939
10
-261.54972344041869
20
-452.62902912679039
10
-264.15444610542363
20
-437.85691283160747
10
-261.20002284638707
20
-437.33596829860642
0
LWPOLYLINE
5
151
100
AcDbEntity
8
0
100
AcDbPolyline
90
4
70
1
43
0.0
10
-263.80474551139207
20
-422.56385200342356
10
-266.75916877042863
20
-423.08479653642456
10
-269.36389143543363
20
-408.31268024124165
10
-266.40946817639707
20
-407.79173570824065
0
LWPOLYLINE
5
152
100
AcDbEntity
8
0
100
AcDbPolyline
90
4
70
1
43
0.0
10
-269.01419084140201
20
-393.01961941305774
10
-271.96861410043857
20
-393.5405639460588
10
-274.57333676544357
20
-378.76844765087583
10
-271.61891350640701
20
-378.24750311787483
0
LWPOLYLINE
5
153
100
AcDbEntity
8
0
100
AcDbPolyline
90
4
70
1
43
0.0
10
-274.22363617141195
20
-363.47538682269192
10
-277.17805943044857
20
-363.99633135569286
10
-279.78278209545357
20
-349.22421506050995
10
-276.82835883641695
20
-348.70327052750895
0
LWPOLYLINE
5
154
100
AcDbEntity
8
0
100
AcDbPolyline
90
4
70
1
43
0.0
10
-279.43308150142195
20
-333.93115423232598
10
-282.38750476045851
20
-334.45209876532704
10
-284.99222742546351
20
-319.67998247014413
10
-282.03780416642695
20
-319.15903793714313
0
LWPOLYLINE
5
155
100
AcDbEntity
8
0
100
AcDbPolyline
90
37
70
1
43
0.0
10
-121.86257912157566
20
-560.58885989498981
10
-5.2746235383089335
20
-560.58885989499151
10
-5.2746235383047546
20
-304.38692164194072
10
-165.27462353830384
20
-304.38692164193844
10
-165.27462353830401
20
-314.38692164193844
10
-163.5381417616349
20
-324.23499917206027
10
-160.58371850259789
20
-323.71405463905955
10
-157.97899583759457
20
-338.48617093424264
10
-160.93341909663116
20
-339.00711546724347
10
-158.32869643162746
20
-353.77923176242655
10
-155.37427317259051
20
-353.25828722942572
10
-152.76955050758713
20
-368.03040352460891
10
-155.72397376662377
20
-368.55134805760963
10
-153.11925110162008
20
-383.32346435279271
10
-150.16482784258315
20
-382.802519819792
10
-147.56010517757974
20
-397.57463611497508
10
-150.51452843661636
20
-398.09558064797579
10
-147.90980577161267
20
-412.86769694315893
10
-144.95538251257582
20
-412.34675241015805
10
-142.35065984757233
20
-427.11886870534124
10
-145.30508310660895
20
-427.63981323834196
10
-142.70036044160526
20
-442.41192953352504
10
-139.74593718256847
20
-441.89098500052421
10
-137.14121451756495
20
-456.66310129570741
10
-140.09563777660156
20
-457.18404582870812
10
-137.49091511159787
20
-471.9561621238912
10
-134.53649185256111
20
-471.43521759089037
10
-131.93176918755756
20
-486.20733388607357
10
-134.88619244659418
20
-486.72827841907429
10
-132.28146978159049
20
-501.50039471425737
10
-129.32704652255379
20
-500.97945018125665
10
-126.72232385755015
20
-515.75156647643973
10
-129.6767471165868
20
-516.27251100944045
10
-127.07202445158308
20
-531.04462730462365
10
-124.1176011925464
20
-530.52368277162282
10
-121.51287852754277
20
-545.2957990668059
10
-124.46730178657938
20
-545.81674359980661
0
LWPOLYLINE
5
156
100
AcDbEntity
8
0
100
AcDbPolyline
90
4
70
1
43
0.0
10
-45.274623538304731
20
-317.38692164194021
10
-60.274623538304645
20
-317.38692164193998
10
-60.274623538304589
20
-314.38692164194003
10
-45.274623538304688
20
-314.38692164194026
0
LWPOLYLINE
5
157
100
AcDbEntity
8
0
100
AcDbPolyline
90
4
70
1
43
0.0
10
-49.950141761635507
20
-324.23499917206215
10
-46.995718502598898
20
-323.71405463906143
10
-44.390995837594851
20
-338.48617093424446
10
-47.345419096631815
20
-339.00711546724523
0
LWPOLYLINE
5
158
100
AcDbEntity
8
0
100
AcDbPolyline
90
4
70
1
43
0.0
10
-44.740696431628109
20
-353.77923176242831
10
-41.786273172591493
20
-353.25828722942759
10
-39.181550507587495
20
-368.03040352461062
10
-42.135973766624417
20
-368.55134805761139
0
LWPOLYLINE
5
159
100
AcDbEntity
8
0
100
AcDbPolyline
90
4
70
1
43
0.0
10
-39.531251101620711
20
-383.32346435279447
10
-36.576827842584109
20
-382.80251981979376
10
-33.972105177580154
20
-397.57463611497684
10
-36.926528436617012
20
-398.09558064797761
0
LWPOLYLINE
5
160
100
AcDbEntity
8
0
100
AcDbPolyline
90
4
70
1
43
0.0
10
-34.321805771613313
20
-412.86769694316064
10
-31.36738251257669
20
-412.34675241015992
10
-28.762659847572792
20
-427.11886870534283
10
-31.717083106609614
20
-427.63981323834372
0
LWPOLYLINE
5
161
100
AcDbEntity
8
0
100
AcDbPolyline
90
4
70
1
43
0.0
10
-29.112360441605922
20
-442.4119295335268
10
-26.157937182569313
20
-441.89098500052609
10
-23.553214517565443
20
-456.66310129570911
10
-26.50763777660222
20
-457.18404582870988
0
LWPOLYLINE
5
162
100
AcDbEntity
8
0
100
AcDbPolyline
90
4
70
1
43
0.0
10
-23.902915111598517
20
-471.95616212389302
10
-20.948491852561901
20
-471.43521759089231
10
-18.343769187558099
20
-486.20733388607528
10
-21.298192446594825
20
-486.72827841907605
0
LWPOLYLINE
5
163
100
AcDbEntity
8
0
100
AcDbPolyline
90
4
70
1
43
0.0
10
-18.693469781591112
20
-501.50039471425919
10
-15.739046522554503
20
-500.97945018125847
10
-13.134323857550738
20
-515.75156647644144
10
-16.088747116587427
20
-516.27251100944227
0
LWPOLYLINE
5
164
100
AcDbEntity
8
0
100
AcDbPolyline
90
4
70
1
43
0.0
10
-13.484024451583716
20
-531.04462730462535
10
-10.529601192547107
20
-530.52368277162464
10
-7.9248785275433944
20
-545.29579906680772
10
-10.879301786580022
20
-545.81674359980843
0
LWPOLYLINE
5
165
100
AcDbEntity
8
0
100
AcDbPolyline
90
4
70
1
43
0.0
10
-90.274623538304425
20
-314.38692164193952
10
-75.27462353830451
20
-314.38692164193975
10
-75.274623538304567
20
-317.38692164193975
10
-90.274623538304468
20
-317.38692164193947
0
LWPOLYLINE
5
166
100
AcDbEntity
8
0
100
AcDbPolyline
90
4
70
1
43
0.0
10
-30.274623538304777
20
-314.38692164194049
10
-15.274623538304864
20
-314.38692164194072
10
-15.274623538304915
20
-317.38692164194066
10
-30.27462353830483
20
-317.38692164194043
0
LWPOLYLINE
5
167
100
AcDbEntity
8
0
100
AcDbPolyline
90
4
70
1
43
0.0
10
-150.27462353830407
20
-314.38692164193861
10
-135.27462353830418
20
-314.38692164193884
10
-135.27462353830424
20
-317.38692164193884
10
-150.27462353830413
20
-317.38692164193856
0
LWPOLYLINE
5
168
100
AcDbEntity
8
0
100
AcDbPolyline
90
4
70
1
43
0.0
10
-70.278024451583391
20
-531.04462730462456
10
-67.323601192546775
20
-530.52368277162384
10
-64.718878527543055
20
-545.29579906680681
10
-67.6733017865797
20
-545.81674359980752
0
LWPOLYLINE
5
169
100
AcDbEntity
8
0
100
AcDbPolyline
90
4
70
1
43
0.0
10
-75.487469781590789
20
-501.50039471425833
10
-72.533046522554187
20
-500.97945018125756
10
-69.92832385755041
20
-515.75156647644053
10
-72.882747116587097
20
-516.27251100944136
0
LWPOLYLINE
5
170
100
AcDbEntity
8
0
100
AcDbPolyline
90
4
70
1
43
0.0
10
-80.696915111598187
20
-471.95616212389211
10
-77.742491852561571
20
-471.4352175908914
10
-75.13776918755778
20
-486.20733388607448
10
-78.092192446594481
20
-486.72827841907514
0
LWPOLYLINE
5
171
100
AcDbEntity
8
0
100
AcDbPolyline
90
4
70
1
43
0.0
10
-85.906360441605599
20
-442.41192953352589
10
-82.951937182568983
20
-441.89098500052518
10
-80.347214517565106
20
-456.66310129570826
10
-83.301637776601879
20
-457.18404582870903
0
LWPOLYLINE
5
172
100
AcDbEntity
8
0
100
AcDbPolyline
90
4
70
1
43
0.0
10
-91.115805771612983
20
-412.86769694315973
10
-88.161382512576353
20
-412.34675241015901
10
-85.556659847572476
20
-427.11886870534204
10
-88.511083106609306
20
-427.63981323834287
0
LWPOLYLINE
5
173
100
AcDbEntity
8
0
100
AcDbPolyline
90
4
70
1
43
0.0
10
-96.325251101620381
20
-383.32346435279362
10
-93.370827842583779
20
-382.80251981979291
10
-90.766105177579831
20
-397.57463611497599
10
-93.720528436616689
20
-398.0955806479767
0
LWPOLYLINE
5
174
100
AcDbEntity
8
0
100
AcDbPolyline
90
4
70
1
43
0.0
10
-101.53469643162779
20
-353.7792317624274
10
-98.580273172591163
20
-353.25828722942668
10
-95.975550507587172
20
-368.03040352460971
10
-98.929973766624087
20
-368.55134805761054
0
LWPOLYLINE
5
175
100
AcDbEntity
8
0
100
AcDbPolyline
90
4
70
1
43
0.0
10
-106.74414176163518
20
-324.23499917206124
10
-103.78971850259856
20
-323.71405463906052
10
-101.18499583759451
20
-338.4861709342436
10
-104.13941909663149
20
-339.00711546724438
0
LWPOLYLINE
5
176
100
AcDbEntity
8
0
100
AcDbPolyline
90
4
70
1
43
0.0
10
-105.27462353830438
20
-317.3869216419393
10
-120.2746235383043
20
-317.38692164193901
10
-120.27462353830424
20
-314.38692164193907
10
-105.27462353830433
20
-314.3869216419393
0
LWPOLYLINE
5
177
100
AcDbEntity
8
0
100
AcDbPolyline
90
48
70
1
43
0.0
10
-294.93311370814604
20
-460.58885989499174
10
-291.93311370814604
20
-460.58885989499174
10
-291.93311370814604
20
-445.58885989499174
10
-294.93311370814604
20
-445.58885989499174
10
-294.93311370814604
20
-430.58885989499174
10
-291.93311370814604
20
-430.58885989499174
10
-291.93311370814604
20
-415.58885989499174
10
-294.93311370814604
20
-415.58885989499174
10
-294.93311370814604
20
-401.13885989499175
10
-306.93311370814604
20
-401.13885989499175
10
-306.93311370814604
20
-404.16412067277457
10
-396.93311370814604
20
-404.16412067277457
10
-396.93311370814604
20
-401.13885989499175
10
-408.93311370814604
20
-401.13885989499175
10
-408.93311370814604
20
-415.58885989499174
10
-411.93311370814598
20
-415.58885989499174
10
-411.93311370814604
20
-430.58885989499174
10
-408.9331137081461
20
-430.58885989499174
10
-408.93311370814604
20
-445.58885989499174
10
-411.93311370814598
20
-445.58885989499174
10
-411.93311370814604
20
-460.58885989499174
10
-408.9331137081461
20
-460.58885989499174
10
-408.93311370814604
20
-475.58885989499174
10
-411.93311370814598
20
-475.58885989499174
10
-411.93311370814604
20
-490.58885989499174
10
-408.9331137081461
20
-490.58885989499174
10
-408.93311370814604
20
-505.58885989499174
10
-411.93311370814598
20
-505.58885989499174
10
-411.93311370814604
20
-520.58885989499174
10
-408.9331137081461
20
-520.58885989499174
10
-408.93311370814604
20
-535.58885989499174
10
-411.93311370814598
20
-535.58885989499174
10
-411.93311370814604
20
-550.58885989499174
10
-408.9331137081461
20
-550.58885989499174
10
-408.93311370814604
20
-560.58885989499174
10
-294.93311370814604
20
-560.58885989499163
10
-294.93311370814604
20
-550.58885989499163
10
-291.93311370814604
20
-550.58885989499174
10
-291.93311370814604
20
-535.58885989499174
10
-294.93311370814604
20
-535.58885989499174
10
-294.93311370814604
20
-520.58885989499174
10
-291.93311370814604
20
-520.58885989499174
10
-291.93311370814604
20
-505.58885989499174
10
-294.93311370814604
20
-505.58885989499174
10
-294.93311370814604
20
-490.58885989499174
10
-291.93311370814604
20
-490.58885989499174
10
-291.93311370814604
20
-475.58885989499174
10
-294.93311370814604
20
-475.58885989499174
0
LWPOLYLINE
5
178
100
AcDbEntity
8
0
100
AcDbPolyline
90
4
70
1
43
0.0
10
-306.93311370814604
20
-517.75212067277459
10
-396.93311370814604
20
-517.75212067277459
10
-396.93311370814604
20
-514.70584083711719
10
-306.93311370814604
20
-514.70584083711719
0
LWPOLYLINE
5
179
100
AcDbEntity
8
0
100
AcDbPolyline
90
4
70
1
43
0.0
10
-306.93311370814604
20
-457.9118408371171
10
-306.93311370814604
20
-460.95812067277456
10
-396.93311370814604
20
-460.95812067277456
10
-396.93311370814604
20
-457.9118408371171
0
ENDSEC
0
SECTION
2
OBJECTS
0
DICTIONARY
5
C
100
AcDbDictionary
3
ACAD_GROUP
350
D
3
ACAD_MLINESTYLE
350
17
0
DICTIONARY
5
D
100
AcDbDictionary
0
DICTIONARY
5
1A
330
C
100
AcDbDictionary
0
DICTIONARY
5
17
100
AcDbDictionary
0
ENDSEC
0
EOF
